<?xml version="1.0" standalone="no"?>
<!DOCTYPE svg PUBLIC "-//W3C//DTD SVG 20010904//EN"
 "http://www.w3.org/TR/2001/REC-SVG-20010904/DTD/svg10.dtd">
<svg version="1.0" xmlns="http://www.w3.org/2000/svg"
 width="141.000000pt" height="141.000000pt" viewBox="0 0 141.000000 141.000000"
 preserveAspectRatio="xMidYMid meet">
<metadata>
Created by potrace 1.14, written by Peter Selinger 2001-2017
</metadata>
<g transform="translate(0.000000,141.000000) scale(0.100000,-0.100000)"
fill="#000000" stroke="none">
<path d="M80 1167 c-77 -39 -93 -156 -29 -216 80 -75 218 -22 224 86 7 104
-102 177 -195 130z"/>
<path d="M635 1159 c-16 -12 -54 -52 -82 -88 -29 -37 -61 -76 -70 -87 -10 -10
-63 -75 -118 -144 -55 -69 -151 -187 -214 -263 -62 -77 -119 -151 -127 -165
-31 -60 -3 -149 56 -179 36 -18 101 -16 131 5 15 9 57 55 95 102 38 47 71 87
74 90 3 3 41 50 85 105 44 55 82 102 85 105 3 3 24 27 45 55 22 27 81 100 132
162 51 62 96 121 102 130 25 48 12 118 -29 158 -41 39 -121 46 -165 14z"/>
<path d="M1210 1167 c-35 -18 -70 -74 -70 -114 0 -167 237 -188 265 -24 8 49
-22 114 -65 136 -35 18 -96 19 -130 2z"/>
<path d="M964 856 c-17 -7 -48 -36 -70 -62 -21 -27 -41 -51 -44 -54 -3 -3 -35
-41 -70 -85 -36 -44 -70 -87 -77 -95 -67 -81 -123 -156 -124 -165 -6 -58 -4
-74 8 -100 33 -69 133 -98 193 -55 29 21 336 395 359 437 28 54 7 136 -44 169
-34 22 -94 27 -131 10z"/>
</g>
</svg>
